<svg width="258" height="208" viewBox="0 0 258 208" fill="none" xmlns="http://www.w3.org/2000/svg">
<g filter="url(#filter0_d_1260_150)">
<rect x="4" width="250" height="200" rx="20" fill="white"/>
</g>
<path d="M53.1364 143H32.0455L64.1818 49.9091H89.5455L121.636 143H100.545L77.2273 71.1818H76.5L53.1364 143ZM51.8182 106.409H101.636V121.773H51.8182V106.409ZM190.193 80C189.557 77.7879 188.663 75.8333 187.511 74.1364C186.36 72.4091 184.951 70.9545 183.284 69.7727C181.648 68.5606 179.769 67.6364 177.648 67C175.557 66.3636 173.239 66.0455 170.693 66.0455C165.936 66.0455 161.754 67.2273 158.148 69.5909C154.572 71.9545 151.784 75.3939 149.784 79.9091C147.784 84.3939 146.784 89.8788 146.784 96.3636C146.784 102.848 147.769 108.364 149.739 112.909C151.708 117.455 154.496 120.924 158.102 123.318C161.708 125.682 165.966 126.864 170.875 126.864C175.33 126.864 179.133 126.076 182.284 124.5C185.466 122.894 187.89 120.636 189.557 117.727C191.254 114.818 192.102 111.379 192.102 107.409L196.102 108H172.102V93.1818H211.057V104.909C211.057 113.091 209.33 120.121 205.875 126C202.42 131.848 197.663 136.364 191.602 139.545C185.542 142.697 178.602 144.273 170.784 144.273C162.057 144.273 154.39 142.348 147.784 138.5C141.178 134.621 136.027 129.121 132.33 122C128.663 114.848 126.83 106.364 126.83 96.5455C126.83 89 127.92 82.2727 130.102 76.3636C132.314 70.4242 135.405 65.3939 139.375 61.2727C143.345 57.1515 147.966 54.0151 153.239 51.8636C158.511 49.7121 164.223 48.6364 170.375 48.6364C175.648 48.6364 180.557 49.4091 185.102 50.9545C189.648 52.4697 193.678 54.6212 197.193 57.4091C200.739 60.197 203.633 63.5151 205.875 67.3636C208.117 71.1818 209.557 75.3939 210.193 80H190.193Z" fill="url(#paint0_linear_1260_150)"/>
<defs>
<filter id="filter0_d_1260_150" x="0" y="0" width="258" height="208" filterUnits="userSpaceOnUse" color-interpolation-filters="sRGB">
<feFlood flood-opacity="0" result="BackgroundImageFix"/>
<feColorMatrix in="SourceAlpha" type="matrix" values="0 0 0 0 0 0 0 0 0 0 0 0 0 0 0 0 0 0 127 0" result="hardAlpha"/>
<feOffset dy="4"/>
<feGaussianBlur stdDeviation="2"/>
<feComposite in2="hardAlpha" operator="out"/>
<feColorMatrix type="matrix" values="0 0 0 0 0 0 0 0 0 0 0 0 0 0 0 0 0 0 0.25 0"/>
<feBlend mode="normal" in2="BackgroundImageFix" result="effect1_dropShadow_1260_150"/>
<feBlend mode="normal" in="SourceGraphic" in2="effect1_dropShadow_1260_150" result="shape"/>
</filter>
<linearGradient id="paint0_linear_1260_150" x1="59.845" y1="143.008" x2="228" y2="143.008" gradientUnits="userSpaceOnUse">
<stop stop-color="#F6BF9F"/>
<stop offset="1" stop-color="#DB8ADE"/>
</linearGradient>
</defs>
</svg>
